<?xml version="1.0" standalone="no"?>
<!DOCTYPE svg PUBLIC "-//W3C//DTD SVG 20010904//EN"
 "http://www.w3.org/TR/2001/REC-SVG-20010904/DTD/svg10.dtd">
<svg version="1.0" xmlns="http://www.w3.org/2000/svg"
 width="1280.000000pt" height="1124.000000pt" viewBox="0 0 1280.000000 1124.000000"
 preserveAspectRatio="xMidYMid meet">
<g transform="translate(0.000000,1124.000000) scale(0.100000,-0.100000)"
fill="#000000" stroke="none">
<path d="M2435 10694 c-27 -14 -66 -42 -86 -61 -73 -69 -65 -173 66 -883 7
-43 43 -149 84 -247 55 -136 96 -215 193 -374 123 -202 124 -203 296 -378 137
-140 189 -201 252 -296 77 -117 80 -124 110 -250 17 -71 55 -206 85 -300 67
-213 67 -218 -32 -400 -147 -271 -176 -335 -187 -415 l-11 -75 -107 -37 c-120
-41 -179 -83 -298 -209 -64 -68 -67 -70 -180 -109 -275 -93 -458 -164 -645
-248 l-200 -90 -203 -229 -204 -228 -135 -275 c-93 -191 -138 -292 -144 -330
-92 -558 -88 -504 -75 -1079 7 -338 7 -363 -9 -357 -9 3 -48 9 -86 12 -40 4
-69 12 -69 18 0 6 15 27 33 46 61 66 62 74 5 32 -31 -23 -59 -42 -61 -42 -3 0
-7 19 -11 43 -3 23 -20 100 -38 171 l-31 128 21 17 c17 12 24 33 32 91 5 41 9
91 9 110 0 33 -1 33 -10 11 -9 -23 -12 -21 -57 47 -25 39 -49 67 -52 62 -3 -5
-14 -8 -24 -7 -13 1 -22 -8 -30 -31 -6 -18 -15 -30 -19 -26 -4 4 -10 -7 -13
-25 -8 -40 -24 -22 -24 27 0 43 -21 91 -53 120 l-25 24 -12 -39 c-7 -21 -19
-50 -27 -66 l-14 -27 -39 20 c-22 11 -41 20 -43 20 -3 0 -7 -22 -11 -48 l-6
-49 -43 1 c-37 1 -42 -1 -40 -21 2 -19 0 -21 -27 -13 -24 7 -30 5 -30 -6 0
-11 -6 -13 -20 -9 -24 8 -25 2 -4 -59 9 -26 15 -49 13 -51 -2 -2 -24 0 -49 5
-25 4 -49 5 -55 2 -5 -4 -21 -5 -35 -3 -22 3 -23 1 -10 -15 14 -16 13 -17 -14
-10 l-28 7 30 -38 c64 -80 116 -120 202 -155 68 -28 91 -33 116 -26 27 7 44 2
110 -32 43 -22 83 -40 90 -40 6 0 19 -9 29 -20 21 -23 13 -25 -46 -11 -26 6
-63 3 -120 -9 l-83 -17 154 -6 155 -7 54 -38 c30 -21 56 -43 58 -48 4 -12 -79
-51 -140 -65 -38 -9 -62 -25 -122 -83 -73 -72 -92 -106 -82 -148 4 -13 -4 -46
-19 -79 l-26 -58 27 -80 c15 -47 35 -87 47 -95 15 -11 19 -22 16 -45 -7 -45
44 -102 106 -119 85 -22 126 -14 171 34 l23 24 16 -25 c21 -32 20 -42 -4 -48
-13 -3 -18 -10 -14 -21 4 -11 0 -16 -13 -16 -11 0 -22 -3 -26 -6 -5 -5 0 -14
48 -71 12 -14 42 -29 74 -38 50 -13 56 -12 97 8 52 25 72 16 54 -24 -8 -17
-29 -31 -67 -44 -31 -11 -63 -30 -71 -42 -13 -21 -13 -23 7 -31 l22 -8 -20
-18 c-12 -11 -21 -32 -21 -49 0 -29 1 -29 43 -24 23 2 50 8 60 12 13 5 17 2
17 -14 0 -14 6 -21 20 -21 34 0 22 -16 -20 -29 -36 -11 -39 -14 -29 -32 12
-24 14 -22 -28 -43 -25 -12 -31 -21 -28 -38 7 -35 34 -50 78 -44 27 5 39 2 43
-8 9 -23 56 -30 70 -11 12 15 16 14 48 -12 20 -15 36 -32 36 -38 -1 -39 -17
-58 -71 -85 -32 -17 -64 -40 -71 -52 -8 -15 -11 -54 -9 -111 l3 -88 -29 14
c-15 8 -39 27 -52 41 -26 27 -131 66 -180 66 -36 0 -66 -23 -58 -43 4 -11 -1
-18 -14 -22 -27 -9 -59 -45 -59 -66 0 -29 65 -43 98 -21 19 12 27 13 30 4 5
-17 38 -15 66 3 13 9 50 17 82 19 87 5 156 -35 233 -134 69 -89 87 -120 74
-129 -6 -3 -21 -26 -36 -51 -25 -43 -25 -47 -13 -101 7 -30 18 -65 25 -77 6
-11 11 -26 11 -32 0 -7 -31 -44 -69 -84 -70 -71 -70 -71 -61 -111 5 -22 10
-43 10 -48 0 -4 -23 -23 -50 -43 -50 -36 -90 -95 -90 -133 0 -18 3 -19 50 -6
30 8 69 29 99 54 27 23 51 41 54 41 3 0 17 -20 31 -45 17 -27 36 -47 51 -51
22 -5 25 -12 25 -51 0 -25 8 -67 17 -94 l18 -49 60 0 c33 0 111 7 174 15 63 9
116 14 118 11 2 -2 -34 -15 -79 -29 -79 -25 -84 -28 -100 -67 -16 -39 -16 -42
7 -98 19 -48 28 -59 58 -69 41 -14 116 0 184 35 23 12 46 22 51 22 5 0 25 -22
43 -49 29 -42 42 -52 91 -66 37 -12 76 -16 112 -13 31 3 56 3 56 1 0 -2 -23
-17 -51 -34 -48 -30 -61 -48 -75 -104 -5 -21 -2 -25 15 -25 32 0 103 31 141
62 19 16 36 24 38 19 6 -19 -19 -92 -39 -110 -13 -12 -17 -21 -10 -26 6 -3 19
7 29 24 21 39 27 39 41 1 10 -30 107 -150 121 -150 14 0 30 174 19 213 -13 47
-6 57 36 57 19 0 37 5 40 10 3 6 0 10 -7 10 -7 0 -22 17 -33 38 -14 26 -35 44
-72 62 -30 14 -53 32 -53 40 0 9 28 94 61 190 34 96 73 217 87 268 14 50 28
92 32 92 10 0 40 -68 40 -91 0 -24 41 -42 76 -33 29 7 76 72 77 106 0 13 -7
40 -16 60 l-17 37 29 15 c49 26 107 30 154 12 65 -25 141 -107 176 -194 17
-40 48 -98 71 -130 43 -61 146 -151 222 -195 l47 -28 -19 -50 c-12 -29 -23
-89 -27 -140 -8 -111 -1 -113 97 -29 38 34 70 58 70 54 0 -3 -13 -23 -29 -43
-44 -56 -52 -77 -58 -151 -5 -62 -3 -73 21 -114 15 -26 38 -54 52 -63 24 -15
26 -15 45 3 12 13 26 56 40 127 12 59 24 105 27 103 2 -3 8 -27 13 -53 12 -64
37 -83 109 -82 85 1 100 9 121 59 10 25 18 59 19 75 0 34 7 46 35 61 30 17 30
42 1 55 -23 11 -26 18 -26 61 0 55 -31 125 -60 136 -18 7 -18 8 1 31 l19 23
69 -21 c38 -12 96 -21 129 -21 l60 0 22 92 c11 51 23 103 26 116 3 16 11 22
29 22 27 0 28 -11 7 -62 -32 -75 -32 -75 -6 -151 23 -68 28 -75 59 -85 45 -13
113 4 188 47 l53 30 37 -62 c32 -55 42 -64 89 -82 40 -15 68 -19 116 -15 34 3
62 4 62 4 0 -1 -25 -20 -55 -43 -42 -32 -57 -50 -65 -82 -6 -22 -14 -47 -17
-55 -4 -10 2 -14 20 -14 39 0 99 29 141 68 l38 37 -4 -53 c-3 -33 -14 -65 -27
-82 -24 -33 -26 -40 -11 -40 6 0 18 16 27 36 l17 35 22 -48 c23 -51 124 -194
124 -178 1 6 6 55 13 110 7 55 10 114 6 130 -16 74 -13 82 38 90 41 6 45 9 30
19 -9 7 -23 29 -32 48 -15 37 -67 88 -89 88 -7 0 -20 6 -29 12 -16 12 -15 19
8 108 14 52 46 160 70 240 24 80 53 188 65 240 12 52 23 96 25 98 8 8 35 -58
35 -85 0 -41 26 -73 58 -73 31 1 50 14 76 54 33 52 36 80 13 141 -24 66 -24
66 61 91 65 19 99 13 100 -18 0 -13 5 -45 10 -71 9 -47 9 -50 -22 -77 -17 -15
-43 -38 -57 -51 -29 -26 -59 -95 -59 -134 0 -14 1 -25 3 -25 1 0 24 7 52 15
36 11 66 31 106 71 l55 54 29 -59 c19 -40 35 -61 50 -65 26 -7 35 -31 35 -95
0 -24 8 -69 17 -99 l18 -55 100 6 c79 4 104 2 120 -9 20 -15 20 -15 -1 -20
-15 -4 -26 -21 -37 -58 -16 -50 -16 -55 4 -117 12 -35 30 -71 40 -81 13 -11
19 -30 19 -62 0 -30 4 -46 12 -46 7 0 38 26 70 57 32 31 60 55 62 52 3 -3 -8
-25 -24 -49 -21 -33 -32 -67 -41 -130 l-12 -85 32 -68 c18 -37 44 -75 58 -84
24 -16 26 -16 43 8 11 13 24 52 29 86 33 195 34 199 42 173 4 -14 7 -39 8 -57
1 -21 12 -45 33 -68 l32 -37 70 7 c88 9 127 25 179 72 28 24 42 32 45 23 8
-23 -19 -117 -38 -135 -11 -10 -17 -22 -14 -26 9 -15 25 1 41 40 l15 36 19
-48 c10 -26 45 -82 76 -124 l58 -76 13 109 c9 81 10 124 1 167 -5 33 -8 61 -6
64 3 2 24 7 46 10 40 5 68 23 38 23 -8 0 -22 19 -31 41 -20 49 -45 73 -104 99
-33 15 -42 24 -38 37 3 10 12 47 21 83 9 36 39 139 67 229 27 91 60 211 73
269 13 57 25 106 28 108 6 7 47 -91 47 -113 0 -28 20 -43 57 -43 36 0 63 23
88 75 19 41 19 71 0 125 -20 56 -20 57 16 75 29 15 32 15 51 -2 17 -15 21 -16
29 -3 24 41 24 41 73 20 71 -32 153 -137 188 -241 15 -44 44 -111 64 -147 42
-76 174 -217 246 -263 26 -17 48 -34 48 -38 0 -5 -9 -34 -20 -65 -25 -75 -40
-286 -19 -286 7 0 51 37 97 82 l83 83 -44 -73 c-45 -72 -67 -150 -67 -231 0
-45 55 -157 87 -178 25 -16 26 -16 44 6 22 27 22 27 49 180 11 63 22 116 24
118 2 2 7 -27 11 -64 9 -89 37 -123 103 -123 25 0 62 5 83 11 35 11 40 17 59
72 11 34 20 75 20 91 0 51 11 75 34 78 31 4 32 41 2 66 -23 17 -26 27 -26 81
0 67 -26 133 -63 162 -20 16 -20 17 25 95 l45 78 62 12 c34 7 87 27 117 45 62
35 55 38 101 -43 36 -62 103 -90 196 -82 l62 6 -25 -21 c-14 -12 -38 -29 -53
-39 -19 -11 -32 -32 -42 -66 -20 -65 -19 -66 10 -66 33 0 95 32 140 71 l36 32
-7 -44 c-8 -55 -30 -109 -43 -109 -6 0 -11 -4 -11 -10 0 -25 29 -6 43 27 l15
38 16 -39 c9 -21 16 -40 16 -42 0 -11 105 -143 109 -138 12 12 27 200 19 243
-4 25 -6 51 -4 57 2 6 23 14 47 18 36 6 39 9 26 19 -9 7 -23 29 -31 49 -17 39
-56 72 -106 90 -21 7 -29 15 -26 25 3 7 13 42 21 76 9 34 38 136 65 227 27 91
54 184 60 208 10 37 14 42 40 42 19 0 30 6 33 18 3 9 5 3 6 -14 2 -70 67 -73
118 -6 38 50 42 89 16 153 -16 40 -15 42 3 56 10 7 40 20 67 28 43 13 51 12
90 -4 23 -10 55 -33 71 -49 28 -30 28 -33 19 -81 -10 -50 -10 -51 14 -45 52
14 55 11 82 -66 41 -117 92 -198 178 -281 43 -41 95 -86 115 -99 21 -14 38
-29 38 -35 0 -5 -9 -39 -20 -75 -20 -65 -29 -260 -13 -260 4 0 43 35 87 78 43
42 75 70 70 62 -4 -8 -22 -38 -40 -66 -24 -37 -36 -72 -45 -131 -11 -77 -11
-84 11 -137 22 -54 68 -116 87 -116 20 0 43 64 62 174 11 65 22 121 25 123 2
2 7 -23 11 -55 6 -50 12 -65 40 -92 31 -30 38 -32 78 -27 81 11 93 20 116 88
11 35 21 82 21 105 0 37 3 43 23 46 18 2 22 9 22 36 0 24 5 34 20 38 11 3 37
23 59 43 l38 36 -5 -49 c-2 -26 -14 -61 -26 -77 -11 -15 -17 -31 -11 -34 5 -3
17 9 26 27 l17 32 21 -45 c12 -25 42 -71 67 -104 l44 -59 12 100 c8 66 8 113
2 142 -5 24 -7 47 -4 51 2 5 24 12 47 16 24 4 35 10 26 12 -9 2 -22 19 -28 37
-13 40 -43 70 -92 90 l-37 16 28 102 c16 57 49 173 74 258 25 85 48 176 52
203 4 26 10 47 14 47 12 0 41 -69 41 -96 0 -27 39 -49 71 -39 24 8 69 84 69
117 0 14 11 35 26 49 l26 24 -7 -42 c-4 -26 -2 -50 6 -64 11 -21 13 -21 24 -5
7 9 16 46 20 81 6 61 16 78 30 55 10 -15 35 -12 35 5 0 26 14 17 62 -43 30
-37 57 -86 74 -133 14 -41 40 -99 57 -129 36 -64 143 -179 207 -223 25 -17 46
-31 48 -32 1 -1 -7 -28 -18 -60 -14 -42 -20 -84 -20 -152 0 -51 4 -93 8 -93 4
0 36 29 72 65 35 35 66 63 68 61 2 -2 -13 -29 -34 -60 -35 -53 -37 -62 -41
-148 -4 -87 -2 -96 24 -142 60 -106 92 -82 119 91 10 62 20 111 22 108 3 -2 9
-28 13 -56 14 -91 65 -118 159 -86 40 14 59 54 69 147 5 47 9 55 29 58 15 2
22 10 22 26 0 25 -22 50 -33 39 -4 -3 -7 22 -7 56 0 65 -27 137 -55 148 -22 8
-19 18 35 110 56 94 63 137 32 188 -14 22 -34 35 -75 48 -31 10 -59 22 -62 27
-4 6 -17 10 -30 10 -24 0 -35 -17 -35 -52 0 -10 -14 -40 -31 -64 -28 -41 -30
-50 -27 -114 2 -39 1 -70 -2 -70 -3 0 -15 23 -27 50 -13 29 -28 50 -37 50 -9
0 -41 -35 -73 -77 -31 -43 -57 -80 -59 -82 -5 -6 -117 85 -155 126 -48 51
-110 159 -164 288 -24 58 -42 105 -41 105 2 0 25 -10 51 -21 45 -20 50 -20 82
-5 52 25 46 58 -27 128 l-59 58 39 26 c27 18 40 34 40 49 0 17 9 26 30 34 33
11 33 11 30 -35 -2 -43 22 -61 55 -40 13 9 30 26 36 38 6 13 13 25 15 27 2 2
14 -6 28 -17 34 -26 152 -38 202 -20 30 11 42 24 71 82 19 38 43 76 52 85 10
9 31 47 46 85 16 38 31 63 33 55 2 -8 16 -31 30 -53 l26 -38 -22 -39 c-30 -51
-28 -83 4 -104 41 -27 82 -13 131 42 l42 48 -11 -48 c-16 -75 -4 -113 44 -143
36 -23 43 -24 72 -13 43 17 116 89 116 114 0 11 -9 40 -20 64 -11 24 -20 45
-20 47 0 2 17 4 38 4 42 0 68 -22 135 -116 l37 -51 -21 -58 c-11 -32 -23 -80
-26 -106 -5 -41 -3 -50 12 -56 14 -5 26 3 48 28 l29 34 -6 -46 c-5 -34 -3 -49
8 -58 21 -18 36 15 36 78 0 38 4 51 14 51 8 0 18 -4 21 -10 9 -14 25 -12 25 3
0 25 18 41 32 30 7 -6 27 -13 43 -15 l30 -3 3 70 c2 45 8 76 18 86 20 22 3 59
-26 59 -11 0 -20 5 -20 10 0 7 -13 8 -37 4 -36 -7 -36 -7 -20 16 11 16 13 28
7 41 -7 12 -6 19 2 21 8 3 -10 30 -44 68 l-56 63 24 51 c13 28 24 60 24 71 1
33 42 54 122 62 66 7 69 8 33 13 l-40 6 43 18 c61 26 47 29 -34 6 -80 -23
-108 -25 -101 -7 6 17 -12 140 -23 151 -5 5 -45 11 -90 12 -44 2 -89 8 -100
14 -10 5 -51 10 -91 10 -58 0 -70 2 -60 13 7 7 40 12 84 12 84 1 123 16 187
74 40 36 43 40 22 41 l-24 0 24 29 c13 16 35 35 51 41 15 7 27 16 27 21 0 4
-23 16 -51 26 l-50 19 40 19 c39 17 60 42 24 28 -13 -5 -15 -2 -10 11 6 15 3
17 -18 12 -29 -7 -35 13 -10 34 26 21 17 30 -30 30 l-45 0 -7 43 c-8 50 -11
38 34 157 19 52 48 130 63 172 l28 77 3 513 2 513 -27 160 c-15 88 -38 223
-52 300 l-26 140 -136 264 -137 265 -209 225 c-194 210 -214 228 -279 259
-171 80 -423 177 -672 257 l-270 87 -80 77 c-130 126 -177 158 -274 187 -47
14 -97 29 -111 33 -23 7 -26 15 -33 79 -7 64 -17 87 -108 254 -56 101 -116
208 -134 239 -60 104 -60 125 1 316 30 93 68 229 85 303 31 134 31 136 114
260 67 102 115 158 256 301 l174 177 123 203 c96 161 137 241 193 379 68 168
72 184 110 400 87 500 96 664 41 723 -30 32 -110 76 -159 87 -55 13 -201 -9
-306 -46 -100 -36 -404 -209 -460 -262 -16 -15 -65 -79 -109 -142 -45 -63
-114 -160 -153 -215 -62 -88 -78 -121 -135 -275 -35 -96 -90 -238 -122 -315
-50 -117 -64 -166 -89 -300 -26 -140 -39 -182 -101 -332 -39 -95 -75 -170 -78
-168 -4 2 -19 64 -35 137 -15 73 -38 185 -52 248 -13 63 -35 169 -48 235 -13
66 -56 275 -94 465 -39 190 -71 356 -71 370 0 14 22 92 49 173 34 100 50 167
52 208 3 60 2 62 -35 89 -20 16 -61 38 -90 50 l-54 21 -117 -37 -117 -37 -59
-76 c-252 -326 -396 -597 -413 -776 -7 -79 -14 -158 -25 -288 -4 -58 -2 -118
6 -175 7 -48 18 -127 24 -177 14 -118 22 -139 149 -404 59 -124 114 -243 121
-265 8 -21 24 -46 37 -56 l23 -18 -23 -16 c-12 -9 -25 -16 -29 -16 -20 0 -249
-135 -343 -202 -132 -95 -205 -163 -254 -238 l-36 -55 -3 -160 -2 -160 -74
-200 c-41 -110 -84 -243 -96 -295 -17 -72 -28 -100 -47 -115 -37 -31 -63 -151
-57 -262 5 -82 8 -93 45 -151 48 -74 120 -120 231 -148 69 -17 69 -17 63 -48
-17 -103 -34 -844 -21 -966 2 -19 4 -65 4 -101 l1 -66 148 -259 c175 -307 222
-396 222 -427 0 -12 -45 -94 -99 -181 -94 -152 -101 -160 -146 -178 -26 -10
-49 -17 -52 -15 -2 3 4 24 13 48 10 24 19 76 21 114 4 85 -10 120 -50 120 -15
0 -31 5 -35 12 -10 15 -61 35 -73 27 -18 -11 -9 -61 16 -84 24 -23 35 -47 15
-35 -20 12 -9 -15 18 -47 16 -18 36 -52 45 -74 25 -65 2 -146 -69 -244 l-55
-77 -37 13 c-52 18 -72 17 -114 -9 -67 -41 -183 -149 -199 -187 -16 -34 -39
-49 -76 -50 -7 0 -13 11 -13 25 0 47 -123 159 -204 185 l-39 13 24 19 c16 13
20 21 12 25 -17 6 -17 23 0 23 7 0 26 13 41 29 l28 29 -31 7 c-37 8 -32 25 7
25 l27 1 -27 12 c-29 13 -27 24 7 43 11 6 21 19 23 28 3 12 -5 16 -34 16 l-38
0 34 25 c19 14 28 25 22 25 -7 0 -17 11 -23 24 -11 23 -13 24 -50 11 -36 -13
-39 -13 -39 4 0 10 16 42 35 70 21 30 35 63 35 81 0 16 4 30 9 30 45 0 218
-50 328 -95 40 -16 41 -18 48 -73 8 -75 55 -157 123 -214 43 -37 62 -46 104
-51 29 -4 53 -5 55 -3 2 2 -5 31 -16 66 l-20 63 45 -7 44 -6 -14 28 c-13 24
-85 98 -143 146 -12 10 -48 24 -80 31 -32 7 -103 29 -158 48 -55 19 -150 47
-212 63 l-111 27 -7 55 c-4 31 -11 67 -16 80 -5 14 -7 27 -4 30 3 3 29 -4 57
-16 28 -12 53 -20 55 -18 2 2 -14 17 -36 32 -22 16 -41 32 -41 35 0 3 17 13
38 23 20 10 81 47 135 82 95 62 98 64 122 48 24 -15 32 -15 123 7 54 13 87 25
75 27 -13 2 -23 5 -23 8 0 2 21 30 46 61 26 32 42 59 35 61 -6 2 -11 10 -11
18 0 9 -12 14 -36 14 -21 0 -33 4 -29 10 4 6 -6 10 -22 11 -25 0 -23 3 22 26
34 17 58 38 72 63 l22 38 -37 6 c-20 3 -50 6 -65 6 -28 0 -28 1 -21 45 l6 46
-28 -6 c-16 -4 -37 -9 -46 -12 -13 -3 -18 2 -18 17 0 12 -5 30 -10 41 -9 15
-15 17 -30 9 -18 -10 -20 -7 -20 19 0 24 -3 29 -17 24 -13 -5 -15 -2 -11 15 8
29 1 27 -46 -8 -21 -16 -43 -27 -47 -24 -5 3 -9 22 -9 44 0 24 -5 40 -15 44
-8 3 -15 16 -15 28 -1 22 -1 22 -12 3 -12 -19 -13 -18 -18 9 -5 26 -8 23 -49
-54 -38 -72 -44 -93 -51 -169 -6 -72 -4 -91 10 -116 17 -28 17 -35 -1 -135
-10 -58 -18 -107 -19 -110 -3 -12 -19 38 -19 62 -1 24 -69 163 -76 156 -2 -2
14 -63 35 -136 l39 -132 -20 -66 -21 -66 -34 33 c-20 19 -47 53 -62 77 -20 31
-45 52 -95 78 -93 49 -122 56 -161 40 -19 -8 -53 -11 -88 -8 -55 4 -58 3 -118
-43 -34 -26 -65 -58 -70 -71 -7 -16 -17 -24 -33 -24 -17 0 -32 -12 -51 -40
-50 -75 -27 -184 47 -222 l39 -19 -23 -25 c-22 -23 -24 -24 -36 -8 -7 10 -16
14 -20 11 -3 -4 -14 0 -24 9 -16 15 -20 13 -48 -26 -27 -37 -29 -47 -24 -93 4
-38 13 -60 33 -82 25 -27 28 -38 32 -122 l4 -91 -31 5 c-26 4 -33 1 -43 -21
-16 -35 -15 -36 7 -36 10 0 24 -7 31 -15 10 -12 6 -23 -26 -62 -88 -108 -207
-234 -215 -226 -4 4 -10 29 -14 56 -7 46 -7 47 19 47 37 0 28 11 -59 75 -65
48 -77 53 -109 48 -33 -5 -41 -1 -86 41 -58 54 -72 56 -165 21 -37 -14 -69
-24 -72 -22 -2 3 4 24 14 48 25 64 25 209 -1 238 -15 17 -22 19 -33 9 -12 -10
-18 -8 -32 10 -10 13 -32 25 -55 29 l-39 6 7 -39 c4 -21 20 -52 34 -67 20 -21
22 -27 8 -21 -17 6 -17 5 -6 -17 7 -13 22 -34 34 -47 11 -13 28 -44 37 -70 13
-40 14 -53 2 -105 -14 -60 -69 -158 -88 -156 -23 1 -100 67 -100 85 0 10 -7
24 -15 31 -13 11 -13 12 1 13 8 0 28 13 43 29 l29 30 -27 7 c-30 7 -25 24 7
25 l22 0 -22 9 c-30 12 -29 28 1 42 37 16 41 38 8 39 -15 1 -30 1 -34 0 -18
-3 -6 17 17 29 25 13 34 30 16 30 -5 0 -13 9 -16 21 -4 13 -12 18 -22 15 -8
-3 -26 -9 -40 -12 -24 -6 -25 -5 -19 21 4 15 18 42 30 59 13 17 27 46 31 64
l7 34 51 -7 c42 -6 197 -54 288 -90 11 -4 19 -24 23 -62 10 -90 74 -184 159
-237 12 -7 43 -16 69 -20 l47 -5 -13 42 c-7 23 -16 52 -20 65 -7 21 -6 22 33
16 30 -5 41 -3 41 6 0 22 -156 169 -187 175 -15 3 -89 26 -163 49 -74 24 -178
54 -230 66 -52 13 -96 24 -98 25 -2 2 -7 29 -12 61 -4 33 -11 67 -15 77 -10
23 17 22 73 -3 23 -10 42 -17 42 -15 0 2 -20 18 -45 36 l-45 32 78 47 c42 25
101 61 130 79 48 30 55 32 82 21 24 -10 44 -9 107 5 79 17 117 35 75 35 -20 0
-18 6 24 57 26 32 42 59 35 61 -6 2 -11 10 -11 18 0 9 -11 14 -31 14 -20 0
-28 4 -23 11 5 8 -3 10 -25 7 -44 -6 -38 4 15 26 31 13 53 31 70 57 13 21 24
41 24 44 0 3 -28 5 -61 5 l-62 0 5 45 c6 49 8 48 -64 28 -12 -3 -18 1 -18 14
-1 28 -26 68 -34 54 -12 -19 -26 -12 -26 14 0 14 -4 25 -9 25 -5 0 -11 9 -13
20 -3 18 -7 17 -48 -16 l-45 -36 -8 51 c-5 28 -13 51 -18 51 -5 0 -9 10 -9 23
-1 21 -1 22 -15 3 -14 -19 -15 -18 -15 10 -1 25 -7 18 -45 -50 -38 -70 -44
-90 -50 -163 -6 -70 -5 -90 10 -116 14 -27 15 -39 6 -72 -6 -22 -11 -59 -11
-82 0 -78 -24 -101 -32 -31 -4 37 -65 165 -74 156 -1 -2 13 -55 32 -118 18
-63 34 -124 34 -136 0 -28 -30 -114 -40 -114 -11 0 -73 70 -94 106 -16 26
-105 81 -182 111 -21 8 -21 10 23 88 25 44 79 143 121 220 l76 140 0 275 c1
278 -9 615 -24 790 -8 101 -7 110 16 110 28 0 127 40 174 70 33 21 62 52 89
96 40 64 41 67 41 157 0 115 -27 226 -63 259 -18 16 -30 45 -42 98 -19 81 -34
127 -119 355 l-56 150 -3 156 c-4 150 -5 157 -33 205 -63 108 -266 266 -506
395 l-138 73 23 26 c13 14 36 59 52 100 16 41 48 116 71 165 103 221 152 350
158 415 4 36 14 116 23 178 16 115 15 135 -13 437 -10 112 -17 142 -54 237
-52 133 -141 298 -200 373 -26 33 -65 88 -87 122 -23 34 -60 86 -84 115 -23
29 -45 56 -49 60 -3 4 -57 23 -120 42 l-114 36 -53 -25 c-29 -13 -69 -36 -88
-51 -31 -23 -35 -31 -35 -73 0 -29 20 -107 57 -216 l56 -170 -16 -95 c-24
-135 -41 -228 -82 -450 -20 -107 -40 -217 -45 -245 -5 -27 -27 -147 -50 -265
-22 -118 -47 -255 -56 -305 -9 -49 -19 -96 -23 -103 -5 -9 -25 28 -56 100 -26
62 -58 137 -71 166 -13 29 -37 126 -55 215 -26 137 -41 185 -95 312 -35 83
-91 224 -125 315 -53 144 -71 179 -138 275 -43 61 -106 151 -140 200 -95 135
-130 166 -306 270 -207 121 -315 161 -457 169 -98 6 -106 5 -153 -20z m4969
-5721 c16 -102 -1 -172 -55 -227 -43 -43 -55 -43 -39 -1 6 15 17 67 25 115 13
86 37 150 54 150 5 0 11 -17 15 -37z m166 -31 c0 -19 -11 -38 -32 -58 -40 -37
-118 -87 -125 -81 -15 16 118 167 148 167 5 0 9 -13 9 -28z m-1923 -98 c7 -83
-10 -137 -59 -185 -22 -22 -43 -38 -45 -36 -2 2 4 24 12 48 9 24 20 74 24 110
10 75 39 145 53 131 5 -5 12 -36 15 -68z m142 -32 c-19 -25 -130 -105 -136
-98 -12 11 33 74 82 116 56 47 60 49 67 29 6 -15 2 -29 -13 -47z m1786 -1
c-33 -67 -39 -73 -147 -145 -102 -67 -168 -99 -168 -81 0 12 58 90 87 116 72
67 236 179 260 179 2 0 -12 -31 -32 -69z m-1769 -88 c-32 -63 -41 -73 -128
-129 -106 -71 -157 -98 -166 -90 -9 10 20 58 61 98 64 66 230 182 265 188 1 0
-13 -30 -32 -67z m-5238 -457 c17 -31 51 -140 52 -164 0 -8 -11 -5 -30 9 -28
21 -90 146 -90 182 0 26 50 7 68 -27z m99 -8 c46 -47 56 -64 81 -148 38 -124
56 -215 48 -236 -6 -15 -11 -12 -36 17 -36 41 -78 127 -114 236 -28 83 -48
183 -37 183 4 0 30 -24 58 -52z m-132 -147 c33 -16 72 -41 87 -57 24 -27 62
-103 55 -110 -2 -2 -19 8 -38 22 -19 14 -65 42 -104 61 -79 40 -131 77 -139
99 -10 26 72 17 139 -15z m6164 -83 c-52 -58 -95 -98 -116 -105 -22 -8 -33 -8
-33 -1 0 5 34 47 75 93 66 73 103 98 148 104 5 1 -29 -41 -74 -91z m183 33
c12 -20 28 -40 35 -44 15 -9 17 -36 4 -56 -7 -11 -16 -8 -45 14 -20 15 -36 26
-36 24 0 -2 7 -26 15 -54 l16 -50 -69 -67 c-101 -98 -152 -105 -152 -20 0 26
-5 53 -12 60 -8 8 3 27 48 78 32 37 79 90 104 120 49 58 54 58 92 -5z m118
-78 c0 -18 -14 -44 -39 -73 -39 -44 -39 -45 -34 -15 14 84 73 155 73 88z
m1071 -50 c-5 -10 -28 -36 -51 -58 -37 -35 -41 -37 -35 -16 4 14 21 46 37 73
26 42 31 46 44 33 11 -10 12 -20 5 -32z m-1556 -120 c-25 -31 -84 -96 -130
-145 -64 -68 -89 -89 -106 -86 -19 3 -7 19 90 128 132 146 147 160 173 160 16
0 11 -10 -27 -57z m365 43 c0 -7 3 -28 6 -45 l7 -31 -57 0 c-31 0 -56 2 -56 5
0 7 84 84 93 85 4 0 7 -6 7 -14z m-960 -51 c0 -23 -26 -43 -63 -48 l-38 -6 21
33 c11 18 20 43 20 55 l0 22 30 -23 c17 -12 30 -27 30 -33z m-169 -40 c27 -9
24 -16 -23 -50 -23 -16 -47 -34 -54 -40 -29 -21 -23 6 13 64 21 35 39 55 41
47 2 -8 12 -18 23 -21z m816 18 c-3 -10 -8 -30 -11 -45 -5 -21 -12 -28 -30
-28 -38 0 -38 12 1 52 42 43 46 45 40 21z m527 -38 c-1 -61 -9 -91 -31 -118
-27 -34 -28 -50 -8 -107 21 -59 12 -63 -10 -5 l-18 46 -27 -26 c-32 -30 -77
-33 -111 -6 -14 10 -42 26 -64 36 l-40 17 33 28 c29 24 40 27 74 22 l41 -5 -5
37 c-4 34 0 41 35 71 38 32 69 44 112 41 15 -1 20 -8 19 -31z m-1066 9 c12 -4
22 -12 22 -19 0 -7 32 -43 71 -80 39 -36 69 -68 67 -69 -1 -2 -18 -11 -36 -20
l-32 -17 -19 44 c-12 28 -41 63 -80 97 -72 62 -70 84 7 64z m489 -88 c-3 -8
-11 -32 -18 -54 -20 -68 -113 -102 -144 -52 -8 13 68 97 100 110 33 14 68 12
62 -4z m93 -96 c0 -12 7 -34 15 -50 15 -28 15 -28 -35 -59 -47 -29 -49 -29
-55 -11 -10 30 22 128 43 133 30 8 32 7 32 -13z m-99 -67 c-8 -15 -10 -15 -11
-2 0 17 10 32 18 25 2 -3 -1 -13 -7 -23z m939 -23 c-6 -11 -13 -20 -16 -20 -2
0 0 9 6 20 6 11 13 20 16 20 2 0 0 -9 -6 -20z m-793 -85 c-15 -30 -29 -72 -33
-92 l-7 -37 -23 28 c-13 15 -24 34 -24 42 0 7 -14 20 -32 27 l-32 13 80 47
c45 26 83 42 88 37 5 -5 -3 -33 -17 -65z m73 40 c10 -12 4 -29 -36 -92 -31
-49 -50 -72 -52 -61 -4 19 56 168 68 168 4 0 13 -7 20 -15z m728 -52 c20 3 47
9 60 13 18 5 22 2 22 -14 0 -11 6 -22 13 -25 6 -2 -24 -16 -68 -30 -44 -14
-83 -23 -86 -21 -4 2 -10 24 -14 50 -5 37 -3 50 12 66 18 20 18 20 21 -12 3
-31 5 -32 40 -27z m-673 5 c19 -9 25 -19 25 -43 0 -30 -4 -34 -70 -63 -38 -17
-70 -27 -70 -21 0 8 82 138 87 139 1 0 14 -5 28 -12z m-5593 -149 c14 -50 31
-62 130 -95 l78 -26 -30 -37 -29 -38 -48 12 c-46 12 -50 15 -107 110 -57 92
-59 98 -41 111 24 18 32 11 47 -37z m5577 -52 c-10 -64 -15 -77 -30 -77 -11 0
-16 5 -13 14 4 10 -2 12 -20 9 -24 -5 -26 -3 -26 33 0 35 5 42 48 70 26 17 48
30 50 29 1 -1 -3 -36 -9 -78z m2321 2 c0 -5 -4 -9 -10 -9 -5 0 -10 7 -10 16 0
8 5 12 10 9 6 -3 10 -10 10 -16z m-7941 -58 c22 -38 41 -72 41 -75 0 -3 -9
-10 -20 -16 -16 -9 -22 -4 -45 33 -16 28 -25 59 -25 85 0 23 2 42 4 42 2 0 22
-31 45 -69z m8054 29 c-8 -41 44 -179 72 -190 17 -6 15 -10 -21 -28 -23 -12
-64 -24 -93 -28 -49 -6 -51 -6 -51 18 0 14 -9 33 -20 43 -11 10 -20 26 -20 35
0 9 -5 21 -11 27 -8 8 -7 17 5 34 9 13 16 31 16 40 0 11 14 22 38 30 20 6 48
20 61 30 31 25 32 24 24 -11z m-7773 -74 c0 -8 -7 -16 -15 -20 -17 -6 -18 -4
-9 18 8 20 24 21 24 2z m8103 -57 c22 -40 24 -49 13 -59 -11 -9 -21 -5 -47 18
-31 27 -31 30 -19 66 13 42 15 41 53 -25z m2597 1 c0 -80 -81 -219 -163 -278
-17 -13 -17 -12 -4 20 7 18 35 88 62 155 44 113 63 139 98 142 4 1 7 -17 7
-39z m-2623 -84 c1 -1 -5 -19 -14 -39 -18 -40 -26 -43 -69 -27 l-27 11 33 34
c25 26 39 33 54 29 12 -4 22 -7 23 -8z m-5413 -44 c13 -38 25 -53 56 -71 32
-18 41 -30 54 -73 8 -29 14 -53 13 -54 -1 -1 -30 -4 -64 -6 -48 -3 -63 -1 -63
9 0 7 -9 13 -20 13 -11 0 -20 4 -20 10 0 5 -7 6 -17 3 -18 -7 -13 7 15 39 11
13 13 30 9 62 -4 26 -2 48 3 51 6 3 10 19 10 36 0 41 6 36 24 -19z m8168 22
c-4 -22 -20 -33 -86 -64 -45 -21 -83 -36 -85 -34 -11 10 62 76 109 97 69 32
68 32 62 1z m-2932 -20 c0 -20 -5 -24 -29 -24 -15 0 -53 -13 -84 -30 -87 -46
-177 -37 -119 12 9 8 46 22 82 31 36 9 81 23 100 31 41 17 50 13 50 -20z
m-1931 -37 c21 -2 13 -11 -58 -64 -46 -35 -86 -63 -91 -63 -19 0 -31 31 -25
62 16 73 17 73 86 70 35 -1 75 -4 88 -5z m-415 -112 c4 -14 13 -25 21 -25 29
0 15 -18 -31 -40 -51 -25 -70 -21 -29 6 27 17 27 18 6 26 -21 7 -21 9 -5 33
21 32 30 32 38 0z m5166 -10 c0 -48 22 -88 57 -104 l28 -14 -33 -14 c-18 -7
-35 -20 -39 -28 -3 -9 -13 -14 -22 -11 -9 2 -33 7 -53 11 -32 5 -38 10 -38 30
0 29 -19 32 -55 9 -29 -19 -79 -15 -83 7 -4 21 130 130 172 140 61 14 66 12
66 -26z m-6955 -10 c76 -13 80 -15 54 -33 -23 -16 -128 -44 -139 -37 -7 5 -5
45 5 68 4 10 14 16 24 13 9 -3 34 -8 56 -11z m128 -66 c4 -15 -1 -22 -19 -30
-14 -5 -33 -9 -43 -9 -9 0 -39 -14 -65 -31 -41 -25 -55 -29 -87 -24 -22 4 -39
10 -39 14 0 16 42 51 63 52 12 0 54 11 92 24 88 29 92 29 98 4z m1745 -6 c-3
-24 -9 -29 -47 -36 -24 -5 -64 -21 -90 -37 -38 -24 -53 -28 -89 -23 -25 3 -41
10 -39 17 6 17 68 56 91 56 12 0 50 11 86 24 86 32 92 32 88 -1z m-2778 -16
c31 -15 75 -31 99 -35 41 -7 42 -8 25 -23 -11 -9 -45 -19 -76 -22 -53 -5 -58
-4 -58 14 0 10 -4 19 -9 19 -5 0 -7 9 -4 20 7 26 -1 25 -41 -5 -38 -29 -46
-31 -46 -10 0 22 -10 19 -48 -17 -33 -32 -34 -32 -27 -8 4 14 15 37 26 53 l20
27 -31 0 c-17 0 -29 3 -27 8 3 4 36 7 74 7 54 0 79 -6 123 -28z m1184 -11 c-6
-16 -24 -23 -24 -8 0 10 22 33 27 28 2 -2 1 -11 -3 -20z m-4246 -104 l26 -34
-27 -24 c-27 -23 -105 -36 -92 -15 3 6 -2 14 -10 19 -13 7 -12 10 10 20 20 10
25 18 25 51 0 23 -6 44 -16 52 -14 11 -12 15 18 30 l33 17 3 -40 c2 -25 14
-55 30 -76z m7164 66 c-15 -15 -24 -6 -16 16 5 12 10 14 17 7 8 -8 8 -14 -1
-23z m336 10 c15 -15 16 -68 1 -68 -6 0 -20 11 -30 24 -11 14 -29 28 -41 32
-16 5 -18 8 -7 15 20 13 63 11 77 -3z m-2621 -6 c20 -7 20 -8 -13 -46 l-34
-39 -25 23 c-31 29 -31 31 3 52 30 18 37 19 69 10z m2448 -32 c4 -6 -9 -10
-32 -9 -34 1 -35 2 -13 9 35 11 38 11 45 0z m227 -22 c2 -6 37 -13 86 -16 45
-2 82 -7 82 -11 0 -3 -23 -19 -52 -34 -53 -30 -67 -26 -68 15 0 12 -11 19 -35
24 -20 3 -35 12 -35 20 0 17 17 19 22 2z m3098 -23 c-7 -9 -15 -13 -17 -11 -7
7 7 26 19 26 6 0 6 -6 -2 -15z m-8336 -30 c-4 -8 -11 -12 -16 -9 -6 4 -5 10 3
15 19 12 19 11 13 -6z m4816 -35 c0 -54 23 -96 63 -116 l32 -17 -27 -11 c-14
-6 -35 -20 -47 -30 -17 -15 -29 -17 -80 -11 -59 7 -61 8 -61 36 0 33 -23 39
-56 14 -20 -15 -101 -20 -122 -7 -23 15 129 125 190 139 29 6 57 19 63 27 5 9
18 16 27 16 14 0 18 -9 18 -40z m707 -11 c29 -23 53 -43 53 -45 0 -2 -18 -3
-40 -2 -29 1 -44 -4 -54 -17 -8 -11 -47 -28 -95 -41 l-81 -22 0 37 c0 34 4 38
78 83 42 25 79 47 81 47 2 1 28 -18 58 -40z m1078 -29 c44 -25 54 -36 57 -63
3 -17 8 -39 12 -48 5 -13 -1 -19 -25 -28 -18 -6 -45 -11 -60 -11 -27 0 -29 2
-29 44 0 24 -6 62 -14 84 -22 61 -14 64 59 22z m-6302 -10 c3 -11 1 -23 -4
-26 -5 -3 -9 6 -9 20 0 31 6 34 13 6z m-2383 -35 c0 -25 -3 -45 -7 -45 -12 0
-53 43 -53 55 0 11 34 33 53 34 4 1 7 -19 7 -44z m2494 13 c-8 -29 -5 -26 -34
-28 -68 -6 -75 10 -16 36 46 20 59 18 50 -8z m5354 -8 c-31 -16 -59 -34 -63
-40 -10 -16 -25 -12 -25 8 0 10 -5 23 -12 30 -9 9 -1 12 38 13 27 0 58 4 69 9
49 21 44 6 -7 -20z m-1298 11 c0 -4 -9 -20 -20 -34 -20 -25 -21 -25 -60 -10
-22 9 -40 19 -40 23 0 4 21 11 48 17 64 14 72 14 72 4z m-3296 -30 c12 -13 16
-32 14 -61 l-3 -43 -25 39 c-15 23 -38 43 -56 49 -41 13 -32 35 15 35 25 0 44
-7 55 -19z m-314 -21 c6 -12 39 -51 72 -88 33 -37 76 -89 94 -117 l34 -49 -28
-29 c-29 -31 -47 -40 -99 -52 -32 -6 -33 -5 -33 24 0 49 -21 131 -33 132 -33
3 -219 20 -269 25 -40 4 -55 9 -52 18 3 9 20 12 53 8 62 -6 111 11 186 62 52
35 57 41 37 44 -23 3 -23 4 -6 23 22 24 31 24 44 -1z m1990 5 c-7 -8 -26 -15
-42 -15 -26 0 -29 2 -18 15 7 8 26 15 42 15 26 0 29 -2 18 -15z m2610 -5 c-8
-5 -22 -9 -30 -9 -10 0 -8 3 5 9 27 12 43 12 25 0z m-4384 -81 c98 -79 113
-108 72 -138 -13 -9 -26 -16 -29 -16 -7 0 -189 201 -189 209 0 4 25 13 46 15
6 0 51 -31 100 -70z m207 27 c23 -3 60 -7 82 -8 l40 -3 -98 -58 c-54 -33 -101
-57 -103 -54 -3 3 -2 39 2 80 6 64 9 74 20 62 8 -8 33 -16 57 -19z m-727 -2
c-3 -9 -6 -21 -6 -27 0 -6 -6 -2 -14 9 -11 14 -11 21 -3 26 20 13 30 9 23 -8z
m-2852 -29 c-10 -8 -23 -14 -29 -14 -5 -1 1 8 15 19 14 10 27 17 29 14 3 -2
-4 -11 -15 -19z m7666 6 c0 -5 -7 -25 -15 -44 -8 -20 -15 -55 -15 -77 0 -22
-4 -40 -9 -40 -5 0 -22 17 -38 38 -26 34 -28 41 -19 79 8 37 13 42 40 46 17 2
37 5 44 5 6 1 12 -2 12 -7z m-5159 -40 c-9 -16 -16 -18 -34 -12 -29 11 -28 34
3 42 32 8 45 -4 31 -30z m2440 -4 c21 -25 25 -37 17 -51 -14 -26 1 -96 30
-134 15 -19 21 -37 16 -42 -7 -6 -138 -60 -148 -60 0 0 1 32 2 72 3 49 -2 91
-14 131 -16 53 -16 60 -2 68 8 4 26 17 39 28 13 11 26 20 29 21 3 0 17 -15 31
-33z m69 18 c-10 -12 -16 -13 -26 -4 -20 16 -18 19 12 19 22 0 25 -2 14 -15z
m-1201 -36 c28 -22 51 -43 51 -45 0 -3 -15 -2 -33 1 -36 7 -67 -12 -67 -41 0
-28 -79 -51 -199 -57 -82 -5 -112 -4 -104 4 13 13 285 178 294 179 4 0 29 -18
58 -41z m5191 26 c-7 -8 -17 -12 -22 -9 -6 4 -5 10 3 15 22 14 33 10 19 -6z
m-2217 -27 c-18 -18 -36 -45 -42 -59 -8 -23 -16 -27 -50 -27 -23 0 -45 -3 -50
-7 -11 -6 -31 25 -31 49 0 8 19 28 43 45 35 25 52 30 101 31 l60 0 -31 -32z
m4527 -58 c0 -4 -6 -14 -12 -23 -10 -13 -22 -15 -50 -11 -31 5 -44 16 -77 64
l-41 58 90 -41 c49 -23 90 -44 90 -47z m-11403 58 c17 -20 18 -28 9 -61 l-12
-38 -29 32 c-17 17 -39 34 -49 38 -17 7 -15 10 15 28 43 27 42 27 66 1z m2633
2 c0 -5 -5 -10 -11 -10 -5 0 -7 5 -4 10 3 6 8 10 11 10 2 0 4 -4 4 -10z m-135
-63 c-15 -97 -18 -108 -37 -118 -10 -6 -24 -9 -31 -6 -17 5 -9 91 14 144 17
40 21 43 40 33 18 -10 20 -17 14 -53z m-112 12 c-28 -47 -40 -53 -46 -24 -4
22 1 28 27 40 17 7 32 14 34 14 2 1 -5 -13 -15 -30z m157 -23 c-12 -20 -23
-36 -25 -36 -4 0 15 71 22 83 3 5 10 4 15 -1 7 -7 3 -22 -12 -46z m5513 -14
c23 -46 59 -72 102 -72 40 0 34 -42 -11 -76 -29 -23 -37 -25 -45 -13 -5 8 -9
22 -9 32 0 13 5 16 24 11 31 -7 55 4 35 17 -8 5 -25 9 -38 9 -14 0 -35 9 -47
21 -12 11 -40 23 -63 26 -27 4 -41 11 -41 20 0 23 63 99 68 82 2 -8 14 -34 25
-57z m1206 36 c-5 -18 -9 -54 -9 -79 0 -34 -5 -49 -16 -53 -25 -10 -34 2 -34
47 0 33 7 51 31 80 17 20 32 37 34 37 2 0 -1 -15 -6 -32z m-6635 -1 c16 -12
15 -15 -23 -40 -44 -29 -50 -23 -26 23 17 34 23 36 49 17z m1516 -18 c-30 -16
-59 -34 -64 -39 -8 -8 -36 29 -36 46 0 2 21 4 48 5 26 0 56 4 67 9 45 19 37 8
-15 -21z m-1320 -1 c-1 -32 -15 -37 -48 -16 -17 11 -32 22 -32 24 0 2 18 4 40
4 25 0 40 -5 40 -12z m3065 -27 c-47 -27 -51 -28 -69 -13 -17 16 -16 17 29 24
26 4 50 9 53 12 3 3 12 6 21 6 9 0 -6 -13 -34 -29z m-3023 -74 c44 -25 48 -37
15 -37 -13 0 -32 -9 -42 -20 -11 -12 -26 -18 -39 -15 -12 2 -38 7 -59 10 -33
5 -38 10 -34 26 7 27 -16 35 -45 15 -23 -16 -139 -23 -137 -8 0 4 39 32 87 63
l87 56 65 -34 c36 -19 82 -44 102 -56z m-478 34 c-4 -19 -10 -29 -16 -23 -5 5
-4 20 3 36 16 33 21 28 13 -13z m5261 9 c22 -42 19 -46 -10 -12 -27 32 -31 42
-15 42 5 0 16 -13 25 -30z m2185 -21 c0 -24 -23 -21 -28 4 -2 10 3 17 12 17
10 0 16 -9 16 -21z m-9835 -36 c4 -20 15 -54 26 -75 41 -80 21 -73 -63 25 -39
45 -47 58 -31 53 16 -5 26 -2 35 13 18 30 25 26 33 -16z m3529 -47 c25 -36 46
-67 46 -71 0 -3 -36 13 -79 36 -78 43 -91 58 -48 60 12 0 16 3 9 6 -10 4 -9 8
5 19 10 7 19 14 20 14 1 0 22 -29 47 -64z m216 42 c-1 -7 -7 -24 -15 -38 -8
-14 -15 -38 -15 -55 -1 -80 -8 -80 -76 3 -34 42 -60 80 -56 84 4 4 39 9 77 11
39 1 73 4 78 5 4 1 7 -4 7 -10z m5746 -25 c13 -69 -15 -266 -58 -407 -22 -72
-43 -139 -45 -148 -8 -27 -23 -22 -23 7 0 19 -11 31 -51 54 l-51 29 30 6 c41
10 72 41 72 75 0 16 -9 58 -20 94 -19 60 -26 70 -85 117 -68 54 -74 64 -51 89
8 9 18 32 23 51 11 44 39 50 89 19 35 -21 36 -21 74 -4 22 10 47 26 56 36 25
27 32 24 40 -18z m74 -43 c0 -4 -9 -18 -20 -31 l-19 -24 -1 49 c0 48 0 49 20
31 11 -10 20 -21 20 -25z m-6059 -37 c60 -32 109 -63 109 -69 0 -6 -23 -15
-52 -18 -56 -8 -82 -18 -114 -48 l-22 -19 -23 40 c-13 24 -45 55 -78 77 l-55
37 55 28 c30 15 58 28 63 29 4 0 57 -26 117 -57z m-989 17 c17 0 15 -5 -14
-32 -32 -32 -34 -33 -65 -18 -18 8 -33 20 -33 27 0 19 33 34 64 28 16 -3 37
-5 48 -5z m1592 -125 c20 -8 45 -15 56 -15 30 0 18 -37 -23 -72 -36 -31 -47
-34 -47 -14 0 8 -3 22 -7 32 -5 14 -2 16 19 11 17 -5 30 -2 38 8 11 13 8 15
-20 15 -20 0 -44 10 -62 25 -16 14 -47 28 -69 31 -48 8 -50 23 -7 74 l33 39
27 -60 c22 -48 34 -63 62 -74z m3644 94 c2 -30 -1 -37 -17 -42 -28 -7 -37 10
-18 31 12 13 13 22 5 35 -8 16 -7 18 8 15 14 -2 20 -14 22 -39z m-6414 -11
l51 -33 -47 -3 c-38 -3 -47 -7 -52 -26 -4 -15 -18 -27 -43 -35 -40 -13 -272
-28 -262 -17 12 13 274 145 288 146 8 0 37 -15 65 -32z m3929 7 c-6 -16 -16
-19 -26 -8 -9 8 13 34 24 28 4 -3 6 -12 2 -20z m-203 -9 c0 -37 53 -67 94 -54
17 6 38 17 47 25 26 22 47 5 55 -44 5 -37 13 -50 48 -75 30 -21 48 -28 67 -24
19 3 32 -1 44 -14 20 -22 30 -18 -120 -44 -49 -9 -105 -18 -122 -22 -33 -6
-33 -6 -33 32 0 60 -47 133 -109 169 -28 17 -51 33 -51 36 0 6 59 37 73 38 4
1 7 -10 7 -23z m2753 -12 c22 -30 20 -35 -11 -27 -15 3 -22 13 -22 29 0 31 10
30 33 -2z m-3349 -28 c-3 -9 -17 -16 -33 -16 l-26 0 30 20 c32 21 38 21 29 -4z
m1324 -24 l23 -42 -21 0 c-49 0 -92 48 -69 76 19 23 42 12 67 -34z m1786 3
c53 -24 96 -49 96 -54 0 -25 -32 -41 -68 -35 -21 4 -40 8 -43 10 -8 4 -91 124
-86 124 3 0 48 -20 101 -45z m-6019 0 c-79 -39 -78 -39 -70 -26 3 5 1 12 -5
16 -22 14 -8 25 33 26 23 1 53 5 67 9 51 16 43 8 -25 -25z m2119 -62 c30 -35
28 -37 -23 -27 -29 6 -31 9 -30 53 0 40 2 43 12 27 7 -11 25 -34 41 -53z
m2546 38 c-16 -31 -9 -112 11 -124 21 -13 63 17 80 56 14 32 23 33 56 7 14
-11 34 -20 44 -20 27 0 23 -16 -9 -39 -20 -14 -34 -38 -47 -80 -10 -34 -16
-64 -13 -67 3 -3 26 0 49 6 31 8 61 28 99 66 l56 54 27 -55 c17 -36 36 -59 52
-65 23 -9 25 -15 26 -67 0 -32 8 -80 18 -108 l18 -50 57 -3 c31 -2 94 4 140
12 45 9 100 16 122 15 36 0 33 -2 -44 -31 -64 -23 -86 -36 -93 -54 -9 -24 -9
-24 -46 -9 -21 9 -42 20 -47 26 -14 13 -50 11 -64 -3 -7 -7 -12 -27 -12 -46 0
-23 -11 -48 -36 -80 l-36 -47 6 -90 6 -90 -21 50 c-24 59 -51 90 -72 82 -9 -3
-34 -33 -56 -65 -22 -33 -47 -67 -56 -75 -8 -9 -15 -23 -15 -31 0 -24 -6 -21
-74 33 -143 114 -217 220 -310 446 -24 58 -42 105 -41 105 2 0 28 -10 59 -21
55 -22 57 -22 97 -4 33 15 39 23 35 39 -3 12 -6 27 -6 34 0 18 -79 101 -113
119 l-29 15 51 34 c42 29 51 40 51 64 0 24 9 36 42 60 45 33 56 33 38 1z
m1278 -24 c28 -39 30 -46 16 -58 -12 -10 -21 -6 -54 26 -38 37 -38 39 -22 60
20 27 19 28 60 -28z m-2890 0 c16 -15 22 -31 22 -61 l-1 -41 -34 55 c-51 79
-46 99 13 47z m-3758 2 c0 -13 -17 -20 -34 -13 -24 9 -19 22 9 22 14 0 25 -4
25 -9z m114 -91 c25 -29 44 -53 42 -55 -2 -2 -33 11 -70 28 -46 21 -66 36 -66
49 0 18 12 28 37 29 6 1 32 -22 57 -51z m206 40 c-1 -7 -7 -24 -15 -38 -8 -14
-14 -37 -15 -52 0 -16 -5 -28 -11 -28 -12 0 -119 99 -119 111 0 4 28 10 63 12
34 2 70 4 80 5 9 1 17 -4 17 -10z m7247 -22 c8 -19 26 -39 39 -45 20 -9 24
-18 24 -57 0 -25 7 -70 16 -100 l15 -54 51 0 c28 0 89 7 135 16 46 8 96 14
111 12 21 -2 11 -8 -48 -29 -71 -25 -75 -28 -88 -69 -11 -33 -12 -51 -4 -78 9
-29 9 -39 -3 -52 -8 -9 -15 -22 -15 -28 0 -19 -10 -15 -66 28 -115 87 -220
230 -276 376 l-21 55 23 24 c20 21 38 29 78 34 7 0 20 -14 29 -33z m-7477 -66
l35 -18 -30 -12 c-36 -14 -95 -5 -95 15 0 48 18 51 90 15z m530 -25 c23 -47
66 -75 116 -75 20 0 22 -3 15 -22 -7 -21 -67 -66 -75 -57 -2 2 -7 15 -11 28
-6 21 -5 23 23 16 18 -3 33 -2 37 4 4 7 -6 11 -26 11 -20 0 -42 9 -55 21 -14
13 -41 23 -68 26 -25 3 -46 10 -46 16 0 9 59 77 66 77 1 0 12 -20 24 -45z
m3996 -32 c15 -119 -36 -387 -114 -603 l-20 -55 -7 32 c-9 38 -17 46 -82 77
l-48 24 37 7 c50 10 88 46 88 85 0 16 -9 63 -20 103 -17 63 -25 77 -67 112
-26 22 -63 54 -82 71 l-35 31 22 28 c12 15 25 45 28 65 l6 37 87 20 c47 11
112 21 143 22 l57 1 7 -57z m2229 -93 c-18 -63 -42 -140 -53 -170 l-20 -55 -9
35 c-7 28 -19 40 -60 61 -52 27 -57 39 -19 39 12 0 34 11 51 24 27 22 30 29
33 100 l4 77 24 -16 c31 -20 30 -20 43 17 10 28 13 30 26 17 12 -12 10 -29
-20 -129z m-5805 101 c-5 -11 -10 -38 -10 -61 0 -33 4 -43 19 -47 11 -3 31
-23 45 -44 20 -29 33 -39 54 -40 15 0 52 -8 82 -18 l55 -17 -75 -18 c-69 -17
-78 -22 -111 -65 -33 -41 -38 -57 -48 -135 l-11 -89 56 -65 c30 -36 64 -83 75
-104 l20 -40 -31 19 c-118 69 -204 173 -295 352 -37 74 -43 93 -28 88 87 -29
98 -30 135 -14 36 15 37 17 27 44 -14 37 -56 80 -98 102 l-34 18 46 27 c34 20
47 34 49 54 2 19 14 33 43 49 49 28 48 28 35 4z m3660 -51 c0 -3 -11 -18 -25
-35 l-24 -30 0 65 0 65 24 -30 c14 -16 25 -32 25 -35z m-1912 3 c24 -13 48
-36 54 -49 7 -15 17 -23 26 -19 31 12 -6 -168 -89 -427 -14 -43 -29 -50 -29
-15 0 28 -32 60 -80 80 -31 13 -33 15 -15 22 69 24 84 35 90 68 4 19 2 52 -5
75 -9 35 -8 46 6 67 21 33 12 111 -21 184 l-25 52 23 -6 c12 -4 41 -18 65 -32z
m151 5 c-9 -16 -14 -19 -17 -9 -2 7 2 17 9 22 20 13 21 11 8 -13z m-49 -29 c0
-16 -2 -29 -6 -29 -3 0 -21 12 -40 28 l-34 27 27 6 c41 8 53 0 53 -32z m-287
-39 c-10 -11 -31 32 -25 53 5 19 7 17 17 -13 7 -19 10 -37 8 -40z m-2323 9 c0
-5 -11 -9 -25 -9 -27 0 -32 9 -13 28 12 12 38 -1 38 -19z m8 -35 c27 -5 30
-11 35 -52 11 -96 -46 -340 -113 -484 l-13 -27 -21 32 c-13 19 -39 38 -65 48
l-44 16 31 6 c83 17 99 56 63 159 -18 53 -18 55 -1 51 15 -4 19 4 25 44 5 38
2 59 -15 97 -11 27 -19 53 -17 59 1 5 24 -7 49 -27 26 -19 50 -31 53 -26 3 6
2 10 -4 10 -14 0 -71 62 -71 77 0 10 13 14 66 22 6 0 25 -2 42 -5z m96 -56
c13 -19 14 -25 3 -42 -25 -37 -37 -31 -37 18 0 50 11 58 34 24z m-340 -117
c-2 -2 -14 6 -28 16 -23 19 -24 21 -8 37 16 15 17 14 28 -16 6 -18 10 -35 8
-37z m8325 -164 c-2 -2 -23 -18 -46 -36 -26 -20 -43 -27 -43 -19 0 7 -3 23 -6
35 -6 20 -2 22 42 25 47 3 62 1 53 -5z m-4543 -126 c-12 -19 -62 -29 -80 -16
-13 10 -14 14 -4 18 22 9 89 7 84 -2z m470 -416 c-21 -16 -32 -13 -21 4 3 6
14 11 23 11 15 -1 15 -2 -2 -15z"/>
</g>
</svg>
